<?xml version="1.0" encoding="UTF-8"?>
<!--
  hanimo logo — horizontal variant (v0 placeholder)
  Copyright 2025-2026 Kim Jiwon (김지원). All rights reserved.
  SPDX-License-Identifier: Apache-2.0

  로고 + "hanimo" wordmark + 한국어 발음. README hero/landing 헤더 용도.
-->
<svg xmlns="http://www.w3.org/2000/svg" viewBox="0 0 600 200" fill="none" role="img" aria-label="hanimo — Modol the Honey-Bee Bichon">

  <!-- ===== Mascot (left side, scaled from square) ===== -->
  <g transform="translate(20, 20) scale(0.625)">
    <ellipse cx="128" cy="172" rx="64" ry="40" fill="#f5a623"/>
    <rect x="100" y="148" width="56" height="10" rx="2" fill="#1a1410"/>
    <rect x="100" y="172" width="56" height="10" rx="2" fill="#1a1410"/>
    <rect x="100" y="196" width="56" height="6" rx="2" fill="#1a1410" opacity="0.7"/>
    <ellipse cx="105" cy="158" rx="14" ry="6" fill="#ffd089" opacity="0.6"/>
    <ellipse cx="80" cy="148" rx="22" ry="14" fill="#ffd089" opacity="0.5" transform="rotate(-15 80 148)"/>
    <ellipse cx="176" cy="148" rx="22" ry="14" fill="#ffd089" opacity="0.5" transform="rotate(15 176 148)"/>
    <circle cx="128" cy="106" r="46" fill="#f0e4d3"/>
    <ellipse cx="86" cy="100" rx="14" ry="20" fill="#f0e4d3" transform="rotate(-25 86 100)"/>
    <ellipse cx="170" cy="100" rx="14" ry="20" fill="#f0e4d3" transform="rotate(25 170 100)"/>
    <line x1="115" y1="68" x2="108" y2="48" stroke="#1a1410" stroke-width="3" stroke-linecap="round"/>
    <line x1="141" y1="68" x2="148" y2="48" stroke="#1a1410" stroke-width="3" stroke-linecap="round"/>
    <circle cx="106" cy="46" r="4" fill="#1a1410"/>
    <circle cx="150" cy="46" r="4" fill="#1a1410"/>
    <circle cx="113" cy="105" r="5" fill="#1a1410"/>
    <circle cx="143" cy="105" r="5" fill="#1a1410"/>
    <circle cx="115" cy="103" r="1.6" fill="#f7eedf"/>
    <circle cx="145" cy="103" r="1.6" fill="#f7eedf"/>
    <ellipse cx="128" cy="120" rx="5" ry="4" fill="#1a1410"/>
    <path d="M 122 130 Q 128 134 134 130" stroke="#1a1410" stroke-width="2" stroke-linecap="round" fill="none"/>
  </g>

  <!-- ===== Wordmark ===== -->
  <text x="200" y="105"
        font-family="-apple-system, BlinkMacSystemFont, 'Pretendard', 'Inter', sans-serif"
        font-weight="800"
        font-size="72"
        letter-spacing="-3"
        fill="#f5a623">hanimo</text>

  <!-- subtitle / Korean reading -->
  <text x="202" y="138"
        font-family="-apple-system, BlinkMacSystemFont, 'Pretendard', sans-serif"
        font-weight="500"
        font-size="14"
        letter-spacing="2"
        fill="#a0a0a8">하니모 · Modol the Honey-Bee Bichon</text>

  <!-- accent dot — honey drip indicator -->
  <circle cx="555" cy="92" r="6" fill="#f5a623"/>

</svg>
